<svg xmlns="http://www.w3.org/2000/svg" viewBox="0 0 375 375">
  <circle cx="187.5" cy="187.5" r="187.5" fill="#001b3d" />
  <path
    fill="#fbae36"
    d="M 81.25 0 C 76.394531 0 72.40625 -1.515625 69.28125 -4.546875 C 66.15625 -7.585938 64.59375 -11.367188 64.59375 -15.890625 L 64.59375 -166.9375 L 98.453125 -166.9375 L 98.453125 -15.890625 C 98.453125 -11.367188 96.84375 -7.585938 93.625 -4.546875 C 90.414062 -1.515625 86.289062 0 81.25 0 Z M 23.703125 -152.359375 C 19.179688 -152.359375 15.398438 -153.742188 12.359375 -156.515625 C 9.328125 -159.296875 7.8125 -162.945312 7.8125 -167.46875 C 7.8125 -171.976562 9.328125 -175.578125 12.359375 -178.265625 C 15.398438 -180.960938 19.179688 -182.3125 23.703125 -182.3125 L 139.328125 -182.3125 C 143.847656 -182.3125 147.625 -180.921875 150.65625 -178.140625 C 153.695312 -175.359375 155.21875 -171.710938 155.21875 -167.203125 C 155.21875 -162.679688 153.695312 -159.078125 150.65625 -156.390625 C 147.625 -153.703125 143.847656 -152.359375 139.328125 -152.359375 Z M 23.703125 -152.359375"
    transform="translate(57.527008 284.999981)"
  />
  <path
    fill="#fbae36"
    d="M 18.484375 -136.734375 L 80.21875 -136.734375 C 84.382812 -136.734375 87.851562 -135.34375 90.625 -132.5625 C 93.40625 -129.78125 94.796875 -126.304688 94.796875 -122.140625 C 94.796875 -118.148438 93.40625 -114.804688 90.625 -112.109375 C 87.851562 -109.421875 84.382812 -108.078125 80.21875 -108.078125 L 18.484375 -108.078125 C 14.316406 -108.078125 10.84375 -109.46875 8.0625 -112.25 C 5.289062 -115.03125 3.90625 -118.503906 3.90625 -122.671875 C 3.90625 -126.660156 5.289062 -130 8.0625 -132.6875 C 10.84375 -135.382812 14.316406 -136.734375 18.484375 -136.734375 Z M 46.359375 -169.28125 C 50.867188 -169.28125 54.554688 -167.757812 57.421875 -164.71875 C 60.285156 -161.6875 61.71875 -157.910156 61.71875 -153.390625 L 61.71875 -37.5 C 61.71875 -35.070312 62.195312 -33.078125 63.15625 -31.515625 C 64.113281 -29.953125 65.414062 -28.820312 67.0625 -28.125 C 68.707031 -27.425781 70.488281 -27.078125 72.40625 -27.078125 C 74.488281 -27.078125 76.394531 -27.46875 78.125 -28.25 C 79.863281 -29.03125 81.863281 -29.421875 84.125 -29.421875 C 86.550781 -29.421875 88.757812 -28.289062 90.75 -26.03125 C 92.75 -23.78125 93.75 -20.660156 93.75 -16.671875 C 93.75 -11.804688 91.101562 -7.8125 85.8125 -4.6875 C 80.519531 -1.5625 74.832031 0 68.75 0 C 65.101562 0 61.066406 -0.300781 56.640625 -0.90625 C 52.210938 -1.519531 48.046875 -3 44.140625 -5.34375 C 40.234375 -7.6875 36.976562 -11.285156 34.375 -16.140625 C 31.769531 -21.003906 30.46875 -27.691406 30.46875 -36.203125 L 30.46875 -153.390625 C 30.46875 -157.910156 31.988281 -161.6875 35.03125 -164.71875 C 38.070312 -167.757812 41.847656 -169.28125 46.359375 -169.28125 Z M 46.359375 -169.28125"
    transform="translate(210.925439 284.999981)"
  />
</svg>
