<svg xmlns="http://www.w3.org/2000/svg" xmlns:xlink="http://www.w3.org/1999/xlink" width="500" zoomAndPan="magnify" viewBox="0 0 375 374.999991" height="500" preserveAspectRatio="xMidYMid meet" version="1.0"><defs><g/></defs><rect x="-37.5" width="450" fill="#ffffff" y="-37.499999" height="449.999989" fill-opacity="1"/><g fill="#28559e" fill-opacity="1"><g transform="translate(56.669181, 279.374982)"><g><path d="M 76.59375 0 C 72.007812 0 68.242188 -1.429688 65.296875 -4.296875 C 62.359375 -7.160156 60.890625 -10.71875 60.890625 -14.96875 L 60.890625 -157.375 L 92.8125 -157.375 L 92.8125 -14.96875 C 92.8125 -10.71875 91.296875 -7.160156 88.265625 -4.296875 C 85.234375 -1.429688 81.34375 0 76.59375 0 Z M 22.34375 -143.625 C 18.082031 -143.625 14.519531 -144.929688 11.65625 -147.546875 C 8.789062 -150.171875 7.359375 -153.609375 7.359375 -157.859375 C 7.359375 -162.117188 8.789062 -165.515625 11.65625 -168.046875 C 14.519531 -170.585938 18.082031 -171.859375 22.34375 -171.859375 L 131.34375 -171.859375 C 135.601562 -171.859375 139.164062 -170.546875 142.03125 -167.921875 C 144.894531 -165.304688 146.328125 -161.875 146.328125 -157.625 C 146.328125 -153.363281 144.894531 -149.960938 142.03125 -147.421875 C 139.164062 -144.890625 135.601562 -143.625 131.34375 -143.625 Z M 22.34375 -143.625 "/></g></g></g><g fill="#28559e" fill-opacity="1"><g transform="translate(217.725273, 279.374982)"><g><path d="M 17.4375 -128.890625 L 75.625 -128.890625 C 79.550781 -128.890625 82.820312 -127.582031 85.4375 -124.96875 C 88.0625 -122.351562 89.375 -119.078125 89.375 -115.140625 C 89.375 -111.378906 88.0625 -108.226562 85.4375 -105.6875 C 82.820312 -103.15625 79.550781 -101.890625 75.625 -101.890625 L 17.4375 -101.890625 C 13.507812 -101.890625 10.234375 -103.195312 7.609375 -105.8125 C 4.992188 -108.4375 3.6875 -111.710938 3.6875 -115.640625 C 3.6875 -119.398438 4.992188 -122.546875 7.609375 -125.078125 C 10.234375 -127.617188 13.507812 -128.890625 17.4375 -128.890625 Z M 43.703125 -159.578125 C 47.953125 -159.578125 51.425781 -158.144531 54.125 -155.28125 C 56.832031 -152.414062 58.1875 -148.859375 58.1875 -144.609375 L 58.1875 -35.359375 C 58.1875 -33.066406 58.632812 -31.179688 59.53125 -29.703125 C 60.4375 -28.234375 61.664062 -27.171875 63.21875 -26.515625 C 64.769531 -25.859375 66.445312 -25.53125 68.25 -25.53125 C 70.21875 -25.53125 72.019531 -25.898438 73.65625 -26.640625 C 75.289062 -27.378906 77.171875 -27.75 79.296875 -27.75 C 81.585938 -27.75 83.675781 -26.679688 85.5625 -24.546875 C 87.445312 -22.421875 88.390625 -19.476562 88.390625 -15.71875 C 88.390625 -11.132812 85.890625 -7.367188 80.890625 -4.421875 C 75.898438 -1.472656 70.539062 0 64.8125 0 C 61.375 0 57.566406 -0.285156 53.390625 -0.859375 C 49.222656 -1.429688 45.296875 -2.820312 41.609375 -5.03125 C 37.929688 -7.238281 34.863281 -10.632812 32.40625 -15.21875 C 29.945312 -19.800781 28.71875 -26.101562 28.71875 -34.125 L 28.71875 -144.609375 C 28.71875 -148.859375 30.148438 -152.414062 33.015625 -155.28125 C 35.878906 -158.144531 39.441406 -159.578125 43.703125 -159.578125 Z M 43.703125 -159.578125 "/></g></g></g><path fill="#e85b46" d="M 187.546875 0 C 84.132812 0 0 84.132812 0 187.546875 C 0 290.957031 84.132812 375.09375 187.542969 375.09375 C 290.953125 375.09375 375.089844 290.957031 375.089844 187.546875 C 375.089844 84.132812 290.957031 0 187.546875 0 Z M 187.546875 355.917969 C 94.703125 355.917969 19.171875 280.386719 19.171875 187.546875 C 19.171875 94.703125 94.703125 19.171875 187.546875 19.171875 C 280.386719 19.171875 355.917969 94.703125 355.917969 187.546875 C 355.917969 280.390625 280.386719 355.917969 187.546875 355.917969 Z M 187.546875 355.917969 " fill-opacity="1" fill-rule="nonzero"/></svg>